<svg xmlns="http://www.w3.org/2000/svg" viewBox="0 0 110 110"><defs/><defs><filter id="a" color-interpolation-filters="sRGB"><feGaussianBlur stdDeviation="2.3"/></filter><filter id="b" color-interpolation-filters="sRGB"><feGaussianBlur stdDeviation=".4"/></filter><linearGradient id="c" x1="-1873" x2="-1905.7" y1="-34.8" y2="53" gradientUnits="userSpaceOnUse"><stop offset="0" stop-color="#fff"/><stop offset="1" stop-color="#fff" stop-opacity="0"/></linearGradient></defs><path fill="#ccc" d="M-1904 6a47 47 0 00-6 1h-1-1a47 47 0 00-5 1l-2 1h-1l-1 1a47 47 0 00-2 0l-1 1h-1l-1 1-2 1-1 1-1 1h-1-1v1h-1l-1 1a47 47 0 00-3 3v1h-1v1h-1v1h-1v1h-1v2h-1v1h-1v2h-1v1h-1v2h-1v2l-1 1v2h-1v3l-1 1v3l-1 2v3a47 47 0 007 29v1l1 1 7 7 1 1v1h1v1h2v1h1v1h1l1 1h1l1 1h1l1 1h1v1h2l1 1h3v1h3v1h1a47 47 0 003 0h1a47 47 0 008 1l2-1h5l1-1h3v-1h3v-1h2l2-1 1-1h1l1-1h1v-1h2v-1h1v-1h1v-1h2v-1h1v-1h1v-1l1-1h1v-1h1v-1l1-1v-1h1v-1h1v-1l1-1v-1h1v-1-1h1v-1-1h1v-1-1l1-1v-1l1-1v-1-1l1-1v-1-1-1-2h1v-1-3-1a49 49 0 000-4v-1-1-1-1-1l-1-1v-1-3h-1v-1-1-1l-1-1v-1l-1-1v-1l-1-1-1-2v-1l-1-1v-1a46 46 0 00-23-19h-2l-1-1h-2a46 46 0 00-12-2z" filter="url(#a)" transform="translate(1959 2)"/><path fill="#ccc" d="M55 8a47 47 0 100 94 47 47 0 000-94z"/><path fill="#b0b0b0" d="M55 8a47 47 0 009 1l4 2v2h-1l-2-1-3-1-4-1h-2 1c1-1 0-1-1-1h-1l-2 1h-1l-1 1h-2-1l-2 1-4 1-3 1h-1-1l-1 1-4 1-1 1h-1l-2 2h-1v1l-2 1c-2 1-3 1-1-1a45 45 0 0119-10 47 47 0 1012-2zm14 3h1l2 1h-2v1l2 2h-1l-1-1-1-1v-1-1zm3 1h1l1 1-1-1h-1zm2 1h1l1 1-2-1zm-6 1h-1 1zm11 1l2 1-2-1zm-6 0l1 1 1 1h-2v-2zm3 0l1 1h-1v-1zm-30 0l1 1 1 1h-1l-1-1v-1zm33 1l1 1 2 2 1 1v4h-1-1l-1 1v-1h-1v2h-3c0 1 0 1 0 0h-1l-2-2 1-1v-1s-1 0 0 0c0-1 0-1 0 0l1-1-1-1 1-1 1-1 1 1h1v-1l-1-1h2v-1zm-30 1h0zm8 0h1v1h-2l1-1zm-17 0v1h-1v-1h1zm10 1h1l-1 1v-1zm29 0v2h1v-1l-1-1zm-23 2v1h-2l1-1h1zm29 0l2 1 1 2c0 1 0 1 0 0h-1v-1l-1-1v-1h-1zm-8 0l-1 1h1v-1zm3 1v0zm5 1l1 1c0 1 0 1 0 0l-1-1zm-3 0v0zm8 2v1l-1-1h1zm-13 0v0zm2 3l1 2v-1l-1-1zm5 2h1l1 2 1 1 1 2v1l-1-1-1-2-2-1-2-2h2zm-31 3v1h0v-1zm12 3h0c-1 0 0 0 0 0zm-4 2h-1 1zm-41 4h1v1h-1v-1zm44 2l1 1 2 1v1h1v1l2 1h1s0-1 0 0h5v1l-1 2 1 2h1l2 1v1l1 1v1l2 3v1l1 1-1 1v2h2v2l-1 1s0 1 0 0h-1v0l-1-1h-1v1 1l1 1c0 1-1 2-3 2h-1v-1 1l-2 2-3 2-2 2h1l1-1c1 0 1 0 0 0l1 1v-1-1l1-1h1l1 1s0 1 0 0h4l1-1 3-1-2 1-1 1-2 1-1 2v1h-1-1l-1-2v2l-1 1h-1l-1-1-1 1h0v2h1l1 1h1l1-1v1l-2 1c0 1 0 1 0 0l-1 1c-1 0-1 0 0 0l-1 1-1 1v1l2 1v1 2h3l-1 1v1l-1 1-2 2-4 1-2-1h1l1-1 1-1h1c1 0 2-4 1-5h-1-1-1-1l-1 1v2l1-1h1l1-1h1v1h-1v2h-1l1-1h-1l-1 1v1c-1 0-1 0 0 0l1 1h-1l-1 1h-1v1l-1-1-3-1-1-1v-1-1h-1l-1-1v-1-2l-1-1v2l-1 1c0 2 0 2 0 0l-1-1v-1l1-1-1-1v-1l-1 1-1-1 1-1-1-1h-1v-1l1-1v-2l-3-1v-1h-1v-1h3l2 1v-1l1-1 1-1 1-1 1-1v-1h1v-2-1h1l1 1 1-1 1-1v-1l1-1v1l1 1 1 1h1v-1l1-1 1-1v-1h1v-1l2-1h1l1-1v-1-1l1-1v-2h-1l-1 1h-1v3l-1 1v-1-1l-1 1h-1-1-2v-1l1-3 2-1h-1c0-1 0-1 0 0h-1l-1 1h-1l-1-2-1-1v-1l-1-1-1-3v-1-1l1-1h1v-2-1h2v-1zm18 1v1h-1v-1h1zm-23 1h1-1zm-20 0h1l1 1-1 1h-1c-2 0-2 0 0-2zm28 2v1h1l-1-1zm-7 2v1h1v-1h-1zm37 0h1l-1 1v-1zm-12 0l1 2-1 1v-3zm-20 0l-1 3h1v-1-2zm5 0v1c0 1 0 0 0 0v-1zm17 1v1l1 1c1-1 1 0 1 1l-1 1v-1l-1-1v-2zm-19 1v1h1l-1-1zm2 1zm-7 0h-1v1h1v-1zm-10 1l1 1h-1v-1zm28 1s1 0 0 0zm-25 0l1 1h-1l-1-1h1zm12 1h-1 1zm-17 0v1l-1-1h1zm9 0v0zm5 1c1 0 0 0 0 0zm23 1l1 1h-1v-1zm-19 0zm1 1h-1l-1 1h2v-1zm-15 1zm8 1h-1 1zm13 1l-1 1v1l-1 1v-1-1 1l-1 1v3l-1 1v1l-1 2-1 1 1 1 1-1 1-1v-1 1h1c0 1 0 0 0 0l1-1v-1l1-2h1v-1-3-2h-1zm-4 0v0zm-9 1l1 1h1v2l-1-1-1 1-1-1v-1l1-1zm30 1l1 1 1 1v1l1 1v2l-2 2-1 1-1 1-1 1v-1-2h-1l1-1v-1l-1-4 1-1 1 1 1-1v-1zm-1 0l-1 1 1-1zm-3 0v1c0 1 0 0 0 0v-1zm-29 1v1h-1l1-1zm-2 3v1h-1l1-1zm29 1v2c-1 0-2-1-1-2h1zm-28 0v1-1zm20 0l-1 1v1h1v-1-1zm-8 1h-1 1zm8 4v0zm-18 1h-1 1c1 0 0 0 0 0zm27 1s1 0 0 0v0zm-4 1h2-2zm2 0h1l-1 1v-1zm-3 1zm2 0l1 1h-1v-1zm2 1v1c1 1-1 2-2 2v1h-3l-1-1h-1l1-1h2l2-1 1-1h1zm-4 0v0zm-60 2h1v2l-2-1 1-1zm26 2h1-1zm-17 1h1l-1 1v-1zm1 0l1 1h-1v-1zm50 1v0zm-3 0v1h1v2-1l-1-1v-1zm-2 1h0zm-1 0l-1 1 1-1zm-2 1h1l1 1h-1-1v1h-1v-1h-1 1v-1h1zm-10 1h1c1 0 0 0 0 0h-1zm8 2h1v1h-1v-1zm-7 0h-1l1 1v-1zm3 0h0zm-6 1l-1 1h1v-1zm13 2h-1c-1 0 0 0 0 0h1zm-4 2v1c0 1 0 1 0 0v-1zm3 0v0zm-18 1v1h-1l1-1zm6 2v1h1l-1-1zm-9 3s1 0 0 0h-1 1z"/><path fill="#8e8e8e" d="M66 10zm-7 1l-5 1h-3v1c0 1 0 1 0 0h-8l-2 1a19 19 0 00-7 2v2h2v1l-1 1v1h-2l-1 1-2 1-2 2v2l-1-1h-1-2l2-2 1-2v-1h2l1-1c3-1 3-2 2-2l-8 4-2 1v-1a47 47 0 0033 80 47 47 0 0039-73l2 4v1l1 1v0h-1-1-1v-1-1-1c0 1 0 0 0 0l-2-4v-1l-1-1h-2c-1-2-1-2-2-1l-2 2 2 3v1l3 4h3v2h-1 1l2 1v1c-1 0-1 0 0 0l-1 1h-1l-1-1-2-1-2-2-1-1-1-1h-1v-1h-2l-1-2c-1 0-1 0 0 0l-2-2h-1l-1-2-1 1-1 1-1 1v-1l-1-2v-1h-1l-3-3-1-1v-1l2 1h1l1-1h1v-1l-1-1-2-1-1-1h-1-1l-1 2v-1h-2l-1-1v-3l-1-2-2-1h-2zm3 3v1h-1v2h1l-1 1v1l1 1-2 1h-2l-2 2v1l-2-1h-1v-1-1c0-1 0-1 0 0h-1-1l-1-1h-1l-1-1h-1l-2-1-1-1v1h-1v-1l-2 1h-1l-3 1h-1 1v-1l1-1h2l4-2h5l1 1 2 1h1l1-1h1l1 1 1-1h-1l-2-1c0-1 3-2 4 0h2l1-1h1zm4 1l-1 1h3l1-1a117 117 0 00-3 0zm-14 0zm18 0v0zm-7 1c-1 0-1 0 0 0zm-12 8v1h-1l1-1zm4 1c1 0 0 0 0 0 0 1 0 1 0 0zm29 0v1c0 1 0 0 0 0v-1zm-3 1l-1 1h1v-1zm-7 2zm-22 0h1l-1 1v-1zm3 0v2l-1-1 1-1zm0 2l1 1-1 1v2l-1 1h-1v1l-1 1c-1 1-1 0-1-1h1v-1h-1c-1 1-1 0 0 0v-3l2-1 2-1zm40 3v0zm-30 1h1v1h-1v-1zm-4 2v1h-1l1-1zm-11 1h-1v1h-1l1-1h1zm16 0v2 2h1v2l1 1 1 1h1l1 2h5l1 2h-1v1l1 1c0 1 0 2 1 1l1 1 1 1 1-1h1v2l-1 1v1l2 3v1l1 2 1-2h2l1 1-1 2v1l1-1 1-1v-1l1-1v-1-1l1 2h2c1 0 0 0 0 0l1 1 1-1 1-1v-1-1l1 2v1l-1 1v1l1-1h1v1l1 1-1 1h1l-1 1v3h-1v1l-1 1-1 1-1 1v1h-2l-2 4-1 1-2 3v1l-1 1v1l-1 1v1h1l2-1-2 2-2 2-1 1-2 2-2 1-2 1-2 1-2 1-2 1-2 1-2 1h-4-2l-5 1h-4l-1-1h-4v-1-1l-1-1h-1l2-1h2l1-1 1-2c-1 0-1 0 0 0l1-1-1-2v1l-1 1h-1c0 1 0 1 0 0l-1-1-2-1-1-1-4-1 1-1v-1h-1v-1h1l1-1h1v-1h2v-1l1-1h1v-3h-1v-1h4c1 0 1 0 0 0v-1l2 1 1-1v-1l2-1 1-2v-2-1l-1-1c0-1 0 0 0 0l-1-1v-1l1-2-1-3h-1v-1l-1-1-1-1-1-1-2-2 2-1 1-1 1-1h5l1-1-1-1 1-1-1-1v-4h4v-1h1l1-1v-1l1-1v-1l1-1v-1zm32 2c0-1 0 0 0 0zm-77 2v1h-1v-1h1zm35 2h1v1 3h-1v-4zm-17 0h1l1 1v1l-1 2-2 1-2-1 2-2-1-1-1-1h3zm42 0l1 1h2c0 1 0 1 0 0h1v2c0 1 0 1 0 0l1 1v1c-1-1-1 0 0 0l1 1 1 1v1l1 1 1 1 1 1h2c1 0 2 2 0 2v-1l-1-1v1l-1 3v-1l-1-1-1 2v1l-1-1-1-3v-2h-1l-3-1c-1 0-2-1-2-3v-4-1-1zm-48 0v1h-1l1-1zm53 1v0zm-32 0v1l-1 1v-1l1-1zm-20 1l1 1h-1v-1zm53 2h0zm-2 0l-1 1 1-1zm12 1l1 2v1h-1v-1-2zm-60 3zm-10 0v0zm25 0v1h-1l1-1zm-24 1c1 0 1 0 0 0 0 1 0 1 0 0-1 0 0 0 0 0zm12 0v1h-1l1-1zm2 1h-1 1zm47 1h1-1zm2 0v0zm-32 3h-1-1c-1 0-2 0-1 1l1 1 1-1 1-1zm-49 1v4l-1 1v-1-1l1-3zm82 0v0zm-46 1v1h-1l1-1zm-34 2h1v1l-1-1zm24 1zm12 0v1c1 0 0 0 0 0v-1zm-37 2zm2 1zm29 1v1c0 1 0 0 0 0v-1zm-26 2v2-1-1zm28 3h0c-1 0 0 0 0 0zm-25 1h1l1 1h-2v-1zm70 1h0zm-60 1l1 1h-2v-1h1zm1 4l1 1h-1v-1zm-8 0l1 1h5l1 1 2 1 2 1c1 0 2 1 1 2l-1 1-2-1h-1v-1h-1-1v-1-1l-1-1h-1v2 2h-1l-3-2-2-2h-1 2v-1h1v-1zm19 1h1l-1 1v-1zm50 2zm-58 0h1l-1 1v-1c0-1 0 0 0 0zm56 1l-1 1 1-1zm-71 0l1 1h-1v-1zm14 0h-1l1 1v-1c0-1 0 0 0 0zm14 2h-1l-2 2h2l1-1h3v-1a32 32 0 01-3 0zm-18 1zm55 0v1h1l-1-1zm-48 1v1l-1-1h1zm11 1h0zm4 0v1h-1l1 1c0 1 0 0 0 0v-1-1zm-19 1l1 1h-1v-1zm18 5v1c0 1 0 0 0 0v-1zm3 1h-1v1l1 1 1-1v-1c1 0 1 0 0 0h-1zm-2 4v1h1l-1-1zm10 0v0z"/><path fill="gray" d="M59 11v1h-2l-1 1h6l1-1-4-1zm-4 1v1l1-1h-1zm-11 2h-1l1 1 1-1h-1zm4 1s1 0 0 0zm-11 0l-1 1h1c1 0 1 0 0 0v-1zm2 1v0zm4 1h-1v1h1v-1zm20 1h-1v1l1 1h1l1 1-2 1-5-1-2 3v1l-1 1-1-1v-1l-1-1h-2-1l-1 1-2-1 1-1 1-1v0l-2-2h-1-4-4l-2 1-1 1-2 1-2 1c-2 1-2 1-2 3l-1 2h-2v2h-2v-2-3c2-1 3-2 2-3h-1l-1 1h-3l1-1c-7 7-12 17-13 27v3l1 4 1 1v2h1l1 1 1 7v4l1 1 1-1 1 1-1-1v-1-1-1l1 1 1 1v1h1c2 1 3 1 2 2h1v1l-1 1-1-1h-1l-1-1v2h-1-1 1v2h-1v1l1 1h1l1-1 1-2c-1-1 0-1 1-1l1 1h2l1 1v1h1l1-3 1-1 1-1h1v-1h-1 4l-1 1h-1l-1 2v1 1l1 2h1v1l1 1h1l1 1h2l2 1 1-1v-1-2-1h1l1 1-1 1 1 2h3c1 1 1 1 0 0v-1h1l1-1-1-1h-2l1-1h1v-1-2l1 1 2 1h1v-1h2c2 1 2 0 2-1v-1l1-1h1l1-1v-2h-1l-1-1c0 1 0 1 0 0v-4-4h-1l-1 1-1-2v-2h-1l-1-1-2-2-1-1h2l3-1h-1l-1-1 3-2h1l1 1c1 1 2 1 2-1 1-2 1-3-2-3h-2v-4l1-1h2l1 1h3l1 1v-1-1h2v-1l1-1v-1l1-1v-1l1-1-2-2h2l1 2v2l1 1v3h1v1l1 1v1h1v1h4l2 1v3h1l1 1h1v-1-2-1l1-4h6v1l1 2v2l-1 1h1v1h2l1 1-1 1v1h2l2 1h1l-1 2v1h-1c0-1 0-1 0 0v1 2h1l1-2 1-1v1l1-2v-4l-1-3c1-1 1-2 2-1v-1h1l1 1 1 1v4l-1 1v1l-1 1v-1l-1-1-1 1c0 1 0 3 2 3v0l-1 1h1v1h1l-1 1 1 1v2l-1 2v2l-1 1v1l-1 1v1l-1 2-2 1v1l-1 3v-1h-1v3l-1 1-2 2v2l-2 2h-1v1l-2 2-2 1-1 2-2 1-2 1-1 1a47 47 0 0023-57v1h-1l2 2v3h-1l-1 1-1-2v-1l1-1v-1l-1-2-1 1-2-1-2-1-2-1h-1l-2-2h-1v-1l-1-1h-1l-2-1-1-1v-2h-1l-1-1-1-1v2h-1v1h-1l-2-2-1-1-1-2-2-2-2-2-1-2v-1l-1 1h-1v-1l1-1v1l-2-1h-1zm6 0v1 1l1 1 2-1-1-1-1-1h-1zm-38 1l-3 1 4-1h-1zm9 0l1 1h-1l-1-1h1zm3 1zm7 4h1l1 1 1 1 1 1v1h1l1 1v1l1 1v3h-1v1c1 1 0 1-1 1h-1l-1 1-1 2h-1-4l-2 1 2-1 1-1v-1l2-2v-1l-1-1h-2l-1-1v-1-1h2v-1l1 1h1l1 1 1 1 2-2v-1h-4l-1-1c-1 0 0 0 0 0l1-1v-1l-1-1h1v-1zm38 1l-2 1-1 2 1 1 2 2 2 3 3 1v-2-2c1 0-2-5-4-5l-1-1zm-41 4c0 1 0 1 0 0zm-5 3h1l-1 1v-1zm54 3v4l1-1v-1l-1-1v-1zm-35 1l1 1v1l-2-1 1-1zm24 0l1 1h-1v-1zm9 0v1h1l-1-1zm-6 2l1 1h-2v-1h1zm-51 0zm-6 0l1 1h-1v-1zm35 1v1h1l-1-1zm-46 0h1v1 2l-1 1v-2-1-1zm24 1h1v1l1 1v3l-1 1-3 1v1-1h-1l-1 1v1l-1 1v1h1l2 1v1h1l1 1-1 1-1-1-2-1v2l-1-1v-1l-1-1h-1v1h-1l-1-1v-1c1 0 1 0 0 0v-1l1-1h-1l-2-1-1-1v-1-2l1-1 1-1h5l1-1 2-1h2zm43 1v0zm-42 0l-1 1h1v-1zm-10 3c-1 0-1 0 0 0 0 1 0 1 0 0zm3 5zm19 0zm-19 1h-1s0 1 0 0h1zm-9 0v4h-1l-1-1h-1v-1-1l1-1h2zm5 1v1l-1-1h1zm49 2v3l-1 2c1 1 1 2 3 2v1h1l1-1h1l-1-2-1-2 1-1c1 0 0 0 0 0l-3-2h-1zm-39 2h1v1l1 1v1l1 1v2l2 2h-1-1l-1-1-1-1-1-1-1-1v-1-1l1-2zm57 0v0zm-11 2v0c0-1 0 0 0 0zm1 2v1h1l-1-1zm-54 2v3l-1-1-1-1 2-1zm47 0zm4 0v0zm-35 2v1l-1-1h1zm1 0h1l-1 1v-1zm-40 3l1 1-1-1zm28 0v4l-1 2v-1-2h-1l1-1c0 1 0 0 0 0v-2h1zm-31 0v3c2 1 2 1 2-1l-1-2h-1zm0 2h1-1zm19 0h1v1l1 2h-2v-1-1-1zm4 1v0zm10 1l1 1h-1v-1zm-5 2v1h-1l-1-1h2zm-15 1h-1 1zm-10 0v0zm30 0v1c1 0 1 0 0 0v-1zm-20 1v1l-1-1h1zm-11 1l1 2v-1l-1-1zm29 1l1 1-1-1c-1 0-1 0 0 0zm-14 0h-1v1h1v-1zm-11 1l1 1h-1v-1zm-3 1a47 47 0 001 0h-1zm15 1l1 1a70 70 0 001 0l-2-1zm9 1v1c0 1 0 0 0 0v-1zm-17 3h-1v1l1-1zm14 0v1l1 2-1 1-1 1c-1 0-2 0-1 1l1 2c-1 0 0 0 0 0l1 1h5l-2-1-1-1-1-1 1-1v-1-1l1 1 2-1-1-1v-1h-1-1l-1-1h-1zm7 1h-1 1s0-1 0 0zm-18 0h-1l1 1v-1zm22 0v0zm2 0l-1 1h1c1 0 0 0 0 0v-1zm-14 1zm-8 0v2l1-1h1l-2-1zm-2 0l-1 1h-1l1 1c0 1 0 1 0 0h1v2l1 1c-1 0 0 0 0 0l2 1-2-1c5 5 11 8 17 10v-1h-1c-1-1 0-1 1-1l1-1-1-1-2-1 2-1 2 1h1l1 1h1l1-1-1-1-2-2v-1h-1-1l-1-2h-1-2v1l2 2-1 1-2 1-2-1h-1l-2-1h-2v1h2l-1 1h-1c-2 0-2-1-1-2l1-1h-1-1l-1-1h4l-1-1-1-2 1-1h-2v1h-1l-1 1v1c1 0 1 0 0 0s-2 0-1-1l-1-2-1-1zm-2 3a47 47 0 002 2v-1l-2-1zm18 2h0zm4 0v1l1-1h-1zm-16 1l1 1h-1v-1zm6 3l3 2 1 1h2l-1 1-1-1-3-1-1-1v-1zm40 4a5 5 0 00-2 0h2zm-2 1h-3a26 26 0 01-8 2 887 887 0 00-15 0l-3-1a47 47 0 0029-1z"/><path fill="#7d7d7d" d="M60 12h-1l-1 1h2l1-1h-1zm-16 2h-1 1zm-1 3h-1v1h1v-1zm27 1h-1v2h1v1h1v-2l-1-1zm-27 1h-1l-1 1-2-1h-2v1h1l-1 1h-2c-1 1-1 2-2 1l-2 1c-2 1-2 2-2 3v1l-2 2-1 1-3 1v-2-1-1l1-2 2-2-1-1-1 1-1 1h-2v-1l-2 2h1l-1 1-1 1-4 6v0c-3 5-4 10-5 15v3l1 4v1l1 1v2h2l1 4 1 2 1 2-1-1h-1v3c1 2 2 2 2 0v-1h1l3 3 3 3v-2l1 2 1 1h1l1-1h1v-1h1l1-1v-1-1-2h1l1 1v1l1 1c1 1 0 2-1 2s-2 1-2 3l1 2v1l2 2h1l2 1h4l-1-1 1-2v-1l1-1h1v3 2c1 1 2 1 2-1l1-1v1h1l1-1v-1h-1c-2 1-3 0-2-1h1v-1h1l-2-3v-1l1 1 3 2h3l1-1v1h2l-1-1v-1h1l1-1h1v-1c0-2 0-3-1-2v-1l-1-2 1-2v-3l-1-1c-1 1-2 0-2-1l-1-2-1-1-2-1-1-1-1-1v1c1 0 1 0 0 0v2l1 1v1l1 1 1 2v2l-1 1v-1l-1-1-1-1v-1h-1l-2-2v-2l-1-3h-2v1l-2-2-1 1-1-1-1-1-3-1h2l1-1v-1h-1l-1-1-1-1v-1-1l-1-1 2-1 1-1h4l1-1h1l1-1 1-1 1 1c-1 0 0 0 0 0h1l1-1h1l2-1v-1l2-2v-1h-1l-4-2 1-1 1-2v-1 1h1v-1-1c2 0 2-1 1-1l-1-1-1-1h-1l1-1v-2h1v-1l-2-1h-1-1-1zm20 0v1h2l-1-1h-1zm-34 0v1h1l-1-1zm38 1h-1l-1 1-1 1h-2l-4-1-1 3-1 1v1h-1l-1 1h1l1 1v1h1v5h-1v1h1v1h-2v-1l-1 1v1l-1 1-1 1-2 1h-1l-1-1-1 1c-2 0-2 0-1 1v3l1 1-1 1c1 0 0 0 0 0h-1-1l-1 1-1 1c-1 0-2 0-2 2l1 1 1 1v-1h1l1 2 1 1 1 1v-1h2l2-2 2-2h2v1h2l1-1v-2h-1l-1-1-1 1-1-1-1-3 1-1 1-1h9v-1-1l1-1v-1l1-2h1l-2-2 4 1v1h-1v2l1 2 1 1v2h1c-1 1 0 1 1 1l1 1-1 1h5l1 1v3h1l1-1 1-1v-1l1-4h2l2 1 1-1v-1l1-2v-2l2 1-1 1-1 1v1 2l1 2 1 2h-1-1l1 1 1 1h1l1 1v1 1h3l1 1-1 2v1h-1v3h1l1-2c0-1 0-2 1-1v-1l1-2v-2h-1v-2l1-2v-2-1l1-2v-1h-1v-2 1h-2l-1-1h-2l-2-2-1-1h-3l-1 1v-1-1-1l-1-1-2-1-1-1v-2h-1l-2-1v1l-1 1s0 1 0 0h-2-1v-1l-1-3-1-1-1-1-2-2-1-1-1-2zm-24 0h-1 1zm8 3v1l1 1v1l1-1 1-1h-1-1v-1h-1zm-1 1h-1 1zm-4 1l1 1h-1v-1zm42 1h-2v3h1v1l1 1 2 2 2 2c1-1 2-2 1-3v-1-1l-4-4h-1zm-66 0v0zm28 3l-1 1h1l1 1h2c1-1 1-1-1-2a16 16 0 01-2 0zm-25 2h0zm17 1l1 1h-1v-1zm20 2h0c-1 0 0 0 0 0zm9 0zm-2 0l-1 1 1-1zm-7 2l1 1v1l-3-1 1-1h1zm34 1l1 1v-1h-1zm-51 0l1 1h-1v-1zm-8 1h0zm-6 0h1v1h-1v-1zm-11 1h1v2l-1 2h-1l1-2v-1-1zm46 0v1h1l-1-1zm33 1l1 1v4l1 2v6c0 1 0 1 0 0h1l-1 4v1c1 0 1 0 0 0v4l-1 1v1l-1 2v2l-1 3-1 2v1l-1 1-1 2-2 3-1 2h-1l-1 1-1 2-2 3-2 2-2 2-1 1-5 3-1 1a47 47 0 0023-57zm0 1zm-73 5h1v1l-1-1zm2 2a121 121 0 012 4l-1 2-1 2v-1l-1-1c-2 0-2-1-1-4v-1h2v-1zm26 0v0zm-22 0v1c0 1 0 0 0 0v-1zm10 1h1l-1 1v-1zm-1 1v0zm43 3v1l-1 1v3h1v1l1 1h2v-1-1l-1-1v-1-1-1h-1l-1-1zm16 2v1 1h1l-1-1v-1zm-2 0v2l1-1-1-1zm-62 0v0zm5 2l1 1h-1v-1zm-5 1zm64 1v0zm-64 1zm1 1l1 1-1 2-1-1v-2h1zm17 2h1v1h-1v-1zm-1 0v1h-1v-1h1zm-7 1v1h-1l1-1zm-4 1v7h-1v-1h-1v-1h1l-1-2v-1-1h1l1-1zm-30 1v2l1-1-1-1zm22 3h1l-1 1v-1zm10 1h1v1h-1v-1zm-9 1zm14 0h0c-1 0 0 0 0 0zm-11 0h1v3h-1l-1-2 1-1zm-7 0v1c0 1 0 0 0 0h1l-1-1zm-12 3l-1 1v2c1 1 2 1 1-1v-2zm-5 1c-1 0-1 0 0 0v0zm28 0l1 2h-1v-2zm-16 2h-1 1zm4 2h-1l1 1v-1c0-1 0 0 0 0zm8 1h1v1h-1v-1zm-3 0v1c1 0 1 0 0 0v-1zm10 2s1 0 0 0zm-10 1l1 1v1l1 1h2v-1-1h-1-1l-2-1zm7 1zm-18 0zm6 2v0zm6 0v1l1-1h-1zm-11 1l1 1-1-1zm10 0v1h1l-1-1zm-2 1l1 1v1l1 1 1 1h1l1-1-2-1-2-1v-1h-1zm-5 0l1 1 1 1h1l-1-1-1-1h-1zm12 1l1 1v2l1 1h2v-1l-1-1-2-1-1-1zm-15 0h0zm14 2l-1 1h2l-1-1zm-13 1l16 8v-1h-1l-2-1-2-1-4-2h-1-1v-1h-2l-1-1-2-1zm7 1h0zm11 0v1l1 1h2v-1a159 159 0 01-3-1zm-9 0v1h1l-1-1zm3 1l-1 1 1 1 1-1v2h2l-1-1-1-1c1-1 0-1-1-1zm4 3zm32 1a5 5 0 00-1 0h1zm-2 1h-1l-2 1h-1l4-1zm-5 1zm-23 0zm7 1z"/><path fill="#6e6e6e" d="M43 17l-1 1h1v-1zm-4 2h-1v1l-2 1-1 1-2 1c-1-1-4 1-4 1v3l-1 1-1 2h-1v1h-3v-3-1h-1v-1h-2l-3 3h-1a47 47 0 00-2 3v2h-1L9 47v6l2 3 1 2 1 1 1 4 1 2 1 2 1 1 5 4h2v1l1 1c0 1 0 1 0 0h1l1-1 1-2v-1h2v-2h1l1 1 1 1v2l-1 1-2 2v1l1 2v1l3 2v-1h1l1 1 2 1v-1l1-1c0 1 0 1 0 0l1-1v-1c-1-1-1-1 1-1h1l-1-1v-1h-2l-2-2v-1l1-1h1v-1h1v-2-1-1h1l1-1 1 4-1 2h1v1l4 4h1v-1l1 1h1v-1h2v-1h1l1-1h2v-1l-1-2h-1v-1-2-2l1-1h-1-1l-1-1h2l1-1h-1-1l-1-2-1-2-2-1-1-1-1 1v2l1 2 1 1v2h-1l-1-1-1-1-2-1-1-1v-1h-1v1c0 1 0 0 0 0l-1-1v-1l1-1c1-1 0-2-1-3v1h-3v-1h-1l-1-1-1-1h-3l1-1 1-1h1l-1-1h-1-1v-1-1l-1-1v-1-1-1h1l2-1 1-1h4l2-2c-1 0-1 0 0 0 0-1 0 0 0 0h4v-1l1-1v1h2v-1l1-1 1-1-2-1-3-2h-1l1-1 1-2 1-1 1-1-1-3-1 1 1 1h-1v-3-2l-1-1v-1h-2v1h-1l-1 1-1-1-1-1zm31 0l1 1v-1h-1zm-4 1l-1 1v1h-3l-2-1-3 1v2l-1 1v1h-1v1h1l1 4v3l-1 1h2c1-1 1-1 0 0v1h-1-2v1h-1l-1 2v1-1h-2l-1 1h-1-2l-1 1h1v1 3c1 1 0 1-1 2h-1v-1l-1 1-1 1v2h-1l2 3 1 1h3l1-1 1-1 1-1v-1h2v-1-2l-1-2c-1-1-1-1 1-3h7c1 0 3 0 2-1l1-1v-1l1-1v-2h1l-1-1v-1h5v1l-1 1-1 1v1l1 2 1 1 1 2v1h1l1 1h1l2 1 2 1 1 1h1l1-1v-2-1l1-1h3l1 1 1-1v-1-1-2-1h-1v-1-1-1l-1-1-2-1-1-1v-1l-1-1h-1-1-1v2h-1l-1-1h-1v-1l-1-1v-1l-1-1v-1-1l-1-1-2-1-1-2-2-1zm-23 1h1l-1 1v-1zm-17 1l-2 1-2 2 1 1 1-1 1-1 1-1v-1zm25 1v1c0 1 0 0 0 0h1l-1-1zm2 2h-1 1zm34 1v1h-1v1l1 1v1l1 1 1 2 1 1h1l1 1 1-1v-2l-1-3a7 7 0 00-2-2l-1-1h-2zm1 1c0 1-1 0 0 0zm-36 2v1l1 1v-1l-1-1zm13 1c1 0 1 0 0 0 0 1 0 1 0 0zm-22 2v1l-2-1h2zm19 1l1 1h-1v-1zm9 1s0 1 0 0c-1 0-1 0 0 0zm-9 1v2h1l-1 1h-1-1c-1-1-1-2 1-3h1zm34 1v2h1v-1l-1-1zm-8 1h-1l1 1v-1zm1 1v1l-1 1v1l-1 1v2l1 3 1 1v2l1-1v1l1 2 3 1v-1l1 4v1h1v-3l-1-3v-1-1l1-1 1-2v-1-1l-1-1v-1l1 1v-2h-2-1l-2-1-2-2h-1zm-52 0h1-1zm-6 0l1 1h-1v-1zm-8 1h0zm-3 0l1 1v1l-1 2h-1v-2l1-1v-1zm15 0v0zm-4 1v0zm69 1a56 56 0 011 7l1 6-1 9-1 1 1 1a47 47 0 00-1-24zm-70 4h-1 1zm-4 0l1 1h-1v-1c-1 0-1 0 0 0zm2 2l1 3 2 2h-1l-1 3v1h-1l-1-2h-1l-1-1v-1-2l1-1 1-1 1-1zm19 1c0 1 0 1 0 0zm8 0l-1 1 1 2 2-1v-1l-1-1h-1zm-9 1l1 1v1l-1-1v-1zm45 3l-1 1h1v-1zm-59 1c0 1 0 1 0 0zm52 1l-1 2 1 1 1 1v1 1h2v-2l-1-1h-1l-1-1 1-2h-1zm-50 1zm2 0l1 1h-2l1-1zm62 1h-1 1zm-61 0v0zm58 1l-1 1h-1c-1 0 0 0 0 0v1l1 1 1-2v-1zm-59 1h-1 1zm-2 0v1h-1l1-1zm3 2v4h-1l-1-2v-1l1-1h1s0-1 0 0zm13 1v0c0-1 0 0 0 0zm-4 3v1h-1v-1h1zm-2 1v0c0-1 0 0 0 0zm57 0h-1l-1 3v2l-1 2v1l-1 1v1h-1l-1 1-2 4-1 2h-1l-1 1-1 2v2l-10 8-2 1c12-6 21-17 24-31zm-87 1v2l1 2v-3l-1-1zm-2 0v0zm35 1v1h-1v-1h1zm-13 2l1 1h-1l-1-1h1zm3 0v1s-1 0 0 0v-1zm-14 1l1 1h-1v-1zm21 0h1v1l1 1h-1l-1-1-1-1h1zm5 1h1-1zm-14 0c1 0 0 0 0 0zm-8 0v1h-1v-1h1zm13 0v2l-1 1h1l1 1h1l1 1v2l-1 1v2 1h1l1-1 1-1 1 1 1-1-2-1h-1v-1l1-1 1-1-2-2-1-1-1-1h-2v-1zm1 3zm-22 2v0zm23 5h1l-1 1v-1zm-7 0v0zm1 3v1c0 1 0 0 0 0l1 1h2v-1l-2-1h-1zm-6 2zm5 1v0zm-5 1v1l1 1v-1h-1v-1zm5 2v1h2l-1-1h-1zm4 1v0zm4 1h-1 1zm2 1l-1 1 1 1h2l-2-2zm-16 1zm3 1l9 5-2-1-2-1a24 24 0 00-5-3zm39 4zm-20 3z"/><path fill="#525252" d="M1556-302l-7 3-5 3v1l-1 3c-1 2-5 4-7 3-7-2-7-2-6 2 0 5-1 9-4 10-2 0-6 4-6 6l-3 6c-3 6-4 11-2 13l1 3c1 2 0 2-4 3-7 1-9-1-5-4 2-2 2-2 2-5l-1-4-4 2h-5v-15l1-7c-1-1-8 3-10 6-4 4-5 5-5 1 0-3 0-3-4-3-4 1-10 6-10 9l-2 3-3 5-3 7-9 17-4 11c-1 4-1 4 1 3 4-1 5-1 4 3v4h-4c-4-1-4-1-6 7l1 5 2-4c0-4 3-5 4-1 1 2 1 3-1 6l-3 5-2 4c-2 2-2 4-2 8l1 9c0 4 0 5 2 5s3 3 1 6l3 2 4 4 1 2v3c0 2 1 3 3 5 3 3 4 3 5 14l2 11 4 1c3 0 4 0 4 2l1 3 3 5 3 4c2 0 7 4 7 6 0 3 7 9 9 9 3 0 4-1 2-5-1-2-1-3 1-5 1-4 3-4 4-2l3 4c2 2 2 3 2 5v3l1-1c0-1 1-2 3-2l2-3-1-2c-1-2 6-5 9-5 3 1 3 1 3-2-1-6 3-7 9-2 3 4 4 4 9 5 6 0 7 0 7 3 0 2 1 3 2 3 3 1 3 3 2 5-3 2-6 0-8-3-2-4-5-4-5-1l1 2 2 3c1 4 0 6-6 8l-5 1v5l-1 6c0 1 1 3 4 5l2 4c-1 1 0 2 2 4 3 3 4 3 6 1 1-2 1-2 8 2l4 3v-3c1-2 1-3 3-2l3-1c0-1 1-2 3-2 2-1 2-1 1-3-3-3-2-6 2-7l3-1c0-2-4-5-7-5l-4-3-4-5c-3-2-2-5 3-10 3-3 5-4 7-4s3-3 1-4c-1 0-2-1-1-2l-2-4-2-4c0-1-1-2-2 0-1 1-4 1-4-1l-1-2-2-2c1-3-4-6-8-7-4 0-5-1-5-4l-2-3c-3 0-3-6 0-5l2 2c0 2 5 5 6 4v-3l2-7c2-3 2-4 1-6-1-4-4-4-4-1 1 3 0 6-2 6s-4-3-4-5l6-7c2-1 3-2 2-3s-5-1-7 2h-2v-3-2c-1-2-5 0-5 3 0 2-1 2-2 1h-2l-2 2-2 1h-5l-7 1-3-2-2-4-1-2c-1-1-2-2-1-3 2-3 0-5-4-5-2 1-3 0 0-3 2-1 3-3 1-3v-4c0-2 0-3 2-3 3-1 3-2 0-6l-2-6-2-4c-3-3-4-4-1-6 2-2-1-7-4-7l-3-1c-1-2-1-2-7 2h-9l1-6 2-8 1-5 2-3v-7c-2-3-2-3 0-4h1l2 2c2 0 3-4 1-4-1-1 0-7 2-7v3c0 3 0 3 3 2 4 0 4 0 4 2s1 3 2 3l4 1c3 0 3 3 3 10 0 5 0 6-3 8s-3 2-2 5l5 4 2 3c0 2 0 2 3 3 3 0 4 1 5 5s2 5 4 6c3 0 5-2 4-6l2-3c2-2 1-4-2-4l-3-1c-1-1 1-1 3-1 4 0 5-1 3-3l1-2c2-2 1-4-2-4-1 0-2-1-2-4-1-4 1-7 2-4 1 2 5-1 5-4l2-4c1-1 2-1 5 2 2 2 4 2 5 2 3-1 3-1 2-5-1-1-1-2 1-2 3-1 2-3-1-3-2 0-5-2-5-5l-1-2c-1 1-2 0-2-1l2-1c1 1 5-2 5-3-2-2 1-2 4 0 4 2 4 4 0 4l-2 1c-1 1 1 7 3 7 1 0 6-4 6-6s4-1 5 1c1 3 6 5 7 4l-2-16v-7l3 1 2 4 1 3c-1 3 1 12 3 13l2 3 2-4c1-4 1-4-2-6-3-3-4-5-1-9 1-2 0-7-2-8v-1c6-4 7-6 7-8l-5-1c-4 1-4 1-4-2 0-7-12-21-17-21zm132 5v3c2 4 2 4 1 5-2 1-2 3-1 8l-1 8 1 9v7l-1 1h3c1-1 1-1 1 1s0 2 3 1l3 1c1 2-1 9-2 9l-1 2c0 3-1 3-3 3l-2 1 2 2 1 1c-1 1 0 2 1 3l2 4c0 3 2 6 4 8l1 3c1 2 4-1 4-4 1-3 5-3 8 0 2 2 1 5-2 5-2 0-3 0-3 2-2 4-2 4 3 7l7 2c3 0 3 0 2-2 0-3 1-6 3-6l3 3 3 4c2 0 4-1 4-3l2-5 2-5c-1-1 0-2 1-2l3-2 4-1 4-3c1-3 6-3 9 0 1 2 1 2 1-6l1-7 1-2c-1-1 0-2 1-3 2-1 2-1 0-3l-4-1c-2 1-9-5-9-7 0-1-8-10-9-8l1 2v3l-3 2-1 2-3 1-4-1-2-1-5-3-6-3c-3 0-5-4-4-6 2-3 1-4-1-5l-2-2-2-5-2-5c0-2-3-5-11-10l-6-2zm-183 2l-2 2-2 2h2l3-2-1-2zm150 2h-2c-6 0-7 2-4 6 2 4 5 3 7-1l2-5h-3zm13 0l-1 2 2 2c3 0 2-4 0-4h-1zm6 5l-1 2c0 2 0 3 1 2l1-2-1-2zm-11 0l-3 2c-2 1-2 3-2 5 1 3 1 4-1 4l-2 2c0 2 0 2-2 0l-4-2h-3v6c0 8 3 14 5 13l3 2c3 3 6 2 6-1l1-2 3 2 4 3 4 1 4 1c3 0 3-4 0-5-2 0-2-1-1-7 0-6 0-7-2-9l-4-2c-2 0-2 0-4-8 0-3-1-5-2-5zm-73 2l-2 1c0 1 2 7 4 7l1 1h-3c-2-2-3 0-3 3l-1 4c-2 2-2 4 0 3l3 1 2 1 2-7c0-2 1-3 4-5l4-2-3-2-4-4-4-1zm105 2l2 2 3 4c0 3-1 3-4 1-2-2-3-3-2-5l1-2zm89 6l-2 2c-3 2-5 13-3 14l1 3 4 6 4 4 4-2c4-1 4-2 4-5l-1-7c-1-5-5-12-9-14l-2-1zm-215 3l2 1 1 2-2 1-2-2 1-2zm133 0c3 1 2 5 0 6v2c2 0 3 3 1 4-2 2-6 3-7 2l-2-1-2-1 3-1c2 1 3-1 3-5 0-3 2-6 4-6zm-35 4l1 1-1 1h-1l1-2zm-134 3l-1 6-1 4c0 2 0 3-3 3-4 0-5-2-2-7 2-4 5-6 7-6zm-39 5v5c-2 4-3 5-4 3s2-8 4-8zm63 1v1l1 6-1 3-1-2-2-4c-1-1-1-1 1-3l2-1zm151 2c3 0 6 3 5 5 0 1-1 1-4-1-4-2-4-4-1-4zm-26 5h-1v2h5l-4-2zm21 1l2 1c1 1 2 2 1 3 0 2-4 2-6 0v-3l3-1zm-108 1l-3 7h5c2-1 3-2 2-3 0-3-2-4-4-4zm-74 1l2 1h4c2 0 2 0 2 4 0 3 0 4-2 4l-3 2c-2 2-9 3-9 2l6-13zm85 2h-1l-5 13 3-1 2-4c0-1 1-2 3-2 3-1 3-2 0-5l-2-1zm48 2l-1 1 1 2 1-2-1-1zm69 1c2 0 2 6 1 9l-2 2h-2c-2 1-5-1-5-3s3-4 5-2l3-1v-5zm32 1l1 1-1 2-1-2 1-1zm-3 4l2 2-1 1-2-2 1-1zm-192 0h-2c-2 1-3 3 0 3l2 1c1 3 3 2 2-1 0-2-1-3-2-3zm110 1c-1 0-2 0-1 1l1 1 2-1-2-1zm-168 1v1c0 1 0 2 1 1v-1l-1-1zm145 1c-2 0-2 1-3 5 0 4-1 5-4 6-5 1-4 4 3 7h8c3 1 8 1 10-1 3-2 3-2-1-6l-3-5c1-1 0-1-2-2-2 0-3-1-3-2-1-2-2-2-4-2h-1zm-165 3v3c-1 3-2 3-3 2-1-2 0-4 2-5h1zm-21 2h1l-1 2-2 1c0-2 1-3 2-3zm95 0h-2c-2 1-3 3-1 4 3 1 5 0 4-2l-1-2zm230 4l-1 3-3 4c-2 1-2 1-1 2l2 6c0 3 0 4-2 4s-3 2-1 4c1 1 2 1 3-1 2-2 2-2 3 0s-1 5-2 4c-3-1-2 1 1 4 2 2 4 2 5 2v1c-2 3-2 3 0 5s2 2 1 5l-1 2-1-2c-2-4-3 0-1 4 1 3 1 3 3 1 1-2 1-2 3 0s2 2 3 1c3-4 3-5 2-8v-3c2-1 2-2 0-4v-4c4-9 6-15 4-17v-3c0-1-1-2-3-1-2 0-9-5-12-8l-2-1zm-223 0h-2c-1 1-2 1-1 2h4l-1-2zm152 1c2 0 3 2 2 5l-3 3-1-2 1-4 1-2zm20 3l1 1-1 1-1-1 1-1zm-102 0v2h3l-2-2h-1zm-12 1c-3 0-4 0-6 2v6l1 5c2 1 4 1 4-1l3-3c3-1 4-2 3-5 0-4 0-4-4-4h-1zm136 1l-1 2-2 4-2 1 2 2c3 2 2 2 5 1 4-1 4-5 1-8-1-2-2-2-3-2zm-234 1l2 1-1 2h-3c-1-2 0-3 2-3zm221 1v2l2 1c1-1 0-3-2-3zm-229 1h1l1 3c0 2-3 2-4 0l2-3zm23 2l-2 1 2 1 1-1-1-1zm238 2l-1 2-1 3-1 1c0 2 0 2 2 0l3-2v-2l-2-2zm-166 6l-1 2-1 4v3l-2 3c-3 2-3 2-2 6l4 5 4 2c1 2 1 2 2 1l2-3c2-2 2-2 1-5v-3l1-7-3-1c-2-1-3-1-3-4 0-2-1-3-2-3zm165 5l-1 1v1l1-1v-1zm-44 2h-1v2c1 2 3 2 3 0l-2-2zm-199 5l-3 2c-3 3-3 3-2 7 2 4 3 4 5 2 3-2 4-4 2-8l-2-3zm-75 0v2l-1 2v-4h1zm326 3h-1l1 2c2 1 3 0 1-1l-1-1zm-159 4c-1 0-2 1-2 3h5l-2-2-1-1zm-36 1c-3 0-3 2-2 4 3 3 4 3 5 0 2-3 0-4-3-4zm-51 9l-2 2 1 1 2-2-1-1zm54 3v2l2 1v-2l-2-1zm-60 9l-2 4-1 5c0 2 1 3 2 3 3 0 4-4 2-9l-1-3zm16 1h-1l1 2h1l-1-2zm-29 7c-2 0-3 1 0 4 2 2 3 2 3 0s-1-4-3-4zm-48 4l1 1-1 2-1-1 1-2zm102 2l-4 2c-3 3-3 3 1 7 2 2 3 3 2 4l-3 2c-2 0-3 3-4 13-2 9-2 11 1 11l2 2c2 3 3 3 4 1 1-3 10-8 12-7s2 0 2-2l1-5c1-1 1-1 1 1 0 4 2 6 4 4v-3l1-3c1 0-3-7-5-7l-1 2c0 2-1 3-2 3-2 0-2-1-2-3v-2c-3 2-6 0-7-4v-6l-2-4v-4l-1-2zm-35 7l2 1v2c-1 1-1 0-2-1v-2zm72 0c-3 0-3 6-1 9 1 2 1 2 3 0 2-3 1-9-2-9zm-47 2h-1v2l3 1c2 0 2 0 1-2l-3-1zm-4 2h-1l-2 1 1 1c0 1 2 1 2-1v-1zm56 3v2c0 2 3 2 3 0s-1-2-2-2h-1zm-38 9l1 1v2l-2-2 1-1zm41 0h-1c-3 1-4 3-2 3l1 4c0 5 0 7 3 7l3 2 4 2c2 0 3 1 3 3 0 4-1 6-6 8-3 2-4 2-5 0-1-1-1-1 2-3 3-3 2-5-2-5s-7 2-7 4l-2 4c-2 2-2 2 0 4l6 3c5 1 5 3 1 5-3 2-6 2-7 0l-3-1c-2 0-2 0-2 4 0 3 1 5 2 5l1 2 3 4 3 2 4-3 8-3c2-1 4-1 5-3 0-2 1-2 1-1 2 1 3 1 4-2 1-2 1-3-1-7s-2-6-3-15v-11l-5-1-5-1v-4c0-4-1-6-3-6zm-87 8l1 1-1 1-1-1 1-1zm39 2l1 1c1 2 0 3-1 2v-3zm37 5h-1v2h1v-2zm-60 0l1 1v1h-1v-2zm40 2l1 9 2 2v-6c0-3-1-5-3-5zm10 4l-1 1 1 1 1-1-1-1zm-132 0l-1 1c-1 2-1 5 1 9s5 3 4-2c0-5-2-8-4-8zm362 3l-1 3 1-3zm-233 2l-1 1v1l2-1-1-1zm-33 4c2 0 2 0 2 3 0 2 0 3-3 3l-3-2c0-2 2-4 4-4zm63 0l1 2-1 3c-3 0-4-3-2-4l2-1zm199 7a145 145 0 01-19 32l-4 7-5 8-3 4c-2 0-8 7-8 10 0 4-11 16-25 27l-5 4c31-23 55-55 69-92zm-192 4l1 1-1 2c-1 1-2-1-2-2l2-1zm-123 2v2l3 3c1 0 1-4-1-5h-2zm74 4c-2 1-1 4 2 6l3 5h2c4-1 4-2 0-4-2-1-4-3-4-5s-2-2-3-2zm4 22l-2 2c-1 2 0 7 2 8 2 2 3 2 3-1l-1-3-1-3-1-3zm-41 1l2 1-2 1-2-1 2-1zm9 50v2c1 2 3 2 4 1s0-2-1-2l-3-1zm-5 27l8 4-4-2-4-2z" filter="url(#b)" transform="translate(-332 93) scale(.23687)"/><path fill="url(#c)" d="M-1904 6a47 47 0 00-6 1h-1-1a47 47 0 00-5 1l-2 1h-1l-1 1a47 47 0 00-2 0l-1 1h-1l-1 1-2 1-1 1-1 1h-1-1v1h-1l-1 1a47 47 0 00-3 3v1h-1v1h-1v1h-1v1h-1v2h-1v1h-1v2h-1v1h-1v2h-1v2l-1 1v2h-1v3l-1 1v3l-1 2v3a47 47 0 007 29v1l1 1 7 7 1 1v1h1v1h2v1h1v1h1l1 1h1l1 1h1l1 1h1v1h2l1 1h3v1h3v1h1a47 47 0 003 0h1a47 47 0 008 1l2-1h5l1-1h3v-1h3v-1h2l2-1 1-1h1l1-1h1v-1h2v-1h1v-1h1v-1h2v-1h1v-1h1v-1l1-1h1v-1h1v-1l1-1v-1h1v-1h1v-1l1-1v-1h1v-1-1h1v-1-1h1v-1-1l1-1v-1l1-1v-1-1l1-1v-1-1-1-2h1v-1-3-1a49 49 0 000-4v-1-1-1-1-1l-1-1v-1-3h-1v-1-1-1l-1-1v-1l-1-1v-1l-1-1-1-2v-1l-1-1v-1a46 46 0 00-23-19h-2l-1-1h-2a46 46 0 00-12-2z" transform="translate(1959 2)"/></svg>